<?xml version="1.0" encoding="UTF-8" standalone="no"?>
<svg
   viewBox="0 0 256 256"
   version="1.1"
   id="svg10"
   sodipodi:docname="moon.svg"
   inkscape:version="1.2.1 (9c6d41e410, 2022-07-14)"
   xmlns:inkscape="http://www.inkscape.org/namespaces/inkscape"
   xmlns:sodipodi="http://sodipodi.sourceforge.net/DTD/sodipodi-0.dtd"
   xmlns="http://www.w3.org/2000/svg"
   xmlns:svg="http://www.w3.org/2000/svg">
  <defs
     id="defs14" />
  <sodipodi:namedview
     id="namedview12"
     pagecolor="#ffffff"
     bordercolor="#000000"
     borderopacity="0.25"
     inkscape:showpageshadow="2"
     inkscape:pageopacity="0.0"
     inkscape:pagecheckerboard="0"
     inkscape:deskcolor="#d1d1d1"
     showgrid="false"
     inkscape:zoom="0.921875"
     inkscape:cx="128.54237"
     inkscape:cy="128"
     inkscape:window-width="1280"
     inkscape:window-height="1001"
     inkscape:window-x="-8"
     inkscape:window-y="-8"
     inkscape:window-maximized="1"
     inkscape:current-layer="svg10" />
  <rect
     fill="none"
     height="256"
     width="256"
     id="rect2" />
  <path
     d="M240,80H224V64a8,8,0,0,0-16,0V80H192a8,8,0,0,0,0,16h16v16a8,8,0,0,0,16,0V96h16a8,8,0,0,0,0-16Z"
     id="path4"
     style="fill:#ffffff" />
  <path
     d="M152,48h8v8a8,8,0,0,0,16,0V48h8a8,8,0,0,0,0-16h-8V24a8,8,0,0,0-16,0v8h-8a8,8,0,0,0,0,16Z"
     id="path6"
     style="fill:#ffffff" />
  <path
     d="M216.5,144.6l-2.2.4A84,84,0,0,1,111,41.6a5.7,5.7,0,0,0,.3-1.8,8,8,0,0,0-5-7.9,7.8,7.8,0,0,0-5.2-.2A100,100,0,1,0,224.3,154.9a7.9,7.9,0,0,0,0-4.8A8.2,8.2,0,0,0,216.5,144.6Z"
     id="path8"
     style="fill:#ffffff" />
</svg>
